<svg xmlns="http://www.w3.org/2000/svg" width="20" height="20" viewBox="0 0 20 20">
  <g id="dribbble" transform="translate(0 0)">
    <path id="Path_16" data-name="Path 16" d="M333.023,274.749a40.377,40.377,0,0,1,2.182,7.646,10.078,10.078,0,0,0,1.88-1.48,9.926,9.926,0,0,0,2.791-5.405,12.457,12.457,0,0,0-6.853-.761Zm0,0" transform="translate(-320.014 -263.845)"/>
    <path id="Path_17" data-name="Path 17" d="M188.482,2.937l-.008-.009A10.024,10.024,0,0,0,178.37.466a40.521,40.521,0,0,1,4.086,6.21,23.211,23.211,0,0,0,6.026-3.739Zm0,0" transform="translate(-171.403)"/>
    <path id="Path_18" data-name="Path 18" d="M303.092,97.859a24.208,24.208,0,0,1-6.271,3.9q.506,1.018.956,2.069a13.7,13.7,0,0,1,2.565-.241,13.547,13.547,0,0,1,4.874.9c.007-.15.011-.3.011-.452a9.924,9.924,0,0,0-2.135-6.178Zm0,0" transform="translate(-285.226 -94.036)"/>
    <path id="Path_19" data-name="Path 19" d="M98.425,292.5a10.025,10.025,0,0,0,10.253,1.244,39.3,39.3,0,0,0-2.258-7.964,12.512,12.512,0,0,0-7.995,6.719Zm0,0" transform="translate(-94.581 -274.622)"/>
    <path id="Path_20" data-name="Path 20" d="M9.811,211.547a13.581,13.581,0,0,1,1.571-.554q-.422-.965-.893-1.9a24.2,24.2,0,0,1-8.46,1.511q-1.017,0-2.02-.083c-.005.134-.009.269-.009.4a9.934,9.934,0,0,0,2.929,7.071l0,0a13.674,13.674,0,0,1,6.88-6.448Zm0,0" transform="translate(0 -200.922)"/>
    <path id="Path_21" data-name="Path 21" d="M12.959,29.724a39.8,39.8,0,0,0-4.14-6.2,10.032,10.032,0,0,0-5.679,7.51q.943.077,1.906.078a23.058,23.058,0,0,0,7.912-1.392Zm0,0" transform="translate(-3.018 -22.609)"/>
  </g>
</svg>
