<svg xmlns="http://www.w3.org/2000/svg" viewBox="0 0 183.45 94.75"><title>Asset 1</title><g id="Layer_2" data-name="Layer 2"><g id="Layer_1-2" data-name="Layer 1"><g id="Layer_1-2-2" data-name="Layer 1-2"><path d="M177.54,33.62Q152.88,46.27,128.2,58.84q-1.21-2.22-2.42-4.45a50.5,50.5,0,0,0,4-10.51c2.2-8.71,2.1-19-2.46-27a7.08,7.08,0,0,0-5-3.83,7.58,7.58,0,0,0-5.72,1.78c-3.94,3.07-5.1,8.24-4.69,13a39.63,39.63,0,0,0,4.16,13.38l-51-2v-38a1.28,1.28,0,0,0-2.55,0V39.11l-25.47-1q-.18-10.74-.19-21.49,0-7.47.08-14.95a1.28,1.28,0,0,0-2.55,0Q34.21,19.85,34.5,38l-7.87-.3-25.4-1c-1.64-.06-1.64,2.48,0,2.55l33.31,1.29q.12,7,.33,14.08.21,7.47.5,14.95c.07,1.63,2.62,1.64,2.55,0q-.57-14.46-.83-28.93l25.43,1V69.6a1.28,1.28,0,0,0,2.55,0V41.76l26,1,25.39,1a1.18,1.18,0,0,0,.73-.19l0,.08c1.83,3.61,3.72,7.2,5.64,10.77a53.43,53.43,0,0,1-8,11.09,64.07,64.07,0,0,1-7.64-10,1.29,1.29,0,0,0-2.33.31l-1.45,5.62L98.68,55a1.3,1.3,0,0,0-2.2,0,25,25,0,0,0-2.64,5.79l-6.21-6.65a1.26,1.26,0,0,0-2.12.56c-.26,1.05-.51,2.1-.77,3.15a5.23,5.23,0,0,1-2.72-3,1.27,1.27,0,0,0-2.46.67,5.45,5.45,0,0,1-2.81,5.73,5.16,5.16,0,0,1-6.29-1.63A4.76,4.76,0,0,1,71,53.26a3.72,3.72,0,0,1,5.24.31,3.48,3.48,0,0,1,.51.74c.75,1.46,3,.17,2.2-1.29a6.27,6.27,0,0,0-9-2.2,7.3,7.3,0,0,0-1.9,9.84,7.8,7.8,0,0,0,9.54,3.06,7.9,7.9,0,0,0,4.19-4.79,7.81,7.81,0,0,0,3.52,1.84,1.29,1.29,0,0,0,1.57-.89l.54-2.22,6.19,6.63a1.28,1.28,0,0,0,2.12-.57,23.4,23.4,0,0,1,2-5.73L103,64.93a1.29,1.29,0,0,0,2.32-.31l1.38-5.36a68.39,68.39,0,0,0,6,7.58l-4.76,2.44c-5.75,3-11.41,6.19-16.19,10.6A1.29,1.29,0,0,0,92.3,82a383.05,383.05,0,0,0,54.42,12.72c1,.16,2.08-.84,1.43-1.87Q139.47,79,131.43,64.7c-.67-1.19-1.33-2.39-2-3.59L159.2,45.87l19.61-10C180.28,35.07,179,32.86,177.54,33.62ZM123.72,50.54a142.4,142.4,0,0,1-7.13-14.45c-1.84-4.72-3.1-10-1.48-15,1-3.16,5.41-7.71,8.76-4.6,1.59,1.48,2.38,4,3,6a33,33,0,0,1,1.38,6.06,38.55,38.55,0,0,1-.53,12.63,47.83,47.83,0,0,1-3.47,10.47Zm1.85,8.81.36.64-5.38,2.77a55.72,55.72,0,0,0,3.78-5.7ZM144.5,91.79A383.81,383.81,0,0,1,95.2,80.24a72,72,0,0,1,12.63-8q3.47-1.83,7-3.6a1.3,1.3,0,0,0,1-.36l.34-.35,8.5-4.33,2.51-1.29q8.28,15,17.32,29.52Z"/><path d="M182.22,31.68a1.28,1.28,0,0,0,0,2.55A1.28,1.28,0,0,0,182.22,31.68Z"/></g></g></g></svg>