<svg xmlns="http://www.w3.org/2000/svg" width="99" height="99" viewBox="0 0 99 99">
  <g id="professionalism" transform="translate(-2.352 -0.001)">
    <g id="Group_3" data-name="Group 3" transform="translate(2.352 0.001)">
      <path id="Path_5" data-name="Path 5" d="M8.384,31.079A6.6,6.6,0,0,0,9.87,34.325C11.334,44.516,20.485,53.2,27.83,52.839,37.176,52.38,43.8,42.307,45.288,34.325a8.143,8.143,0,0,0,1.559-3.587c.4-1.831.826-4.592-.276-6.051-.065-.076-.486-.463-.558-.527,1.051-3.792,3.361-10.559-2.389-16.641-3.116-3.3-7.443-4.955-11.353-6.257C20.731-2.6,12.581,2.814,8.819,11.808c-.272.638-2.026,4.679.1,12.351a2.18,2.18,0,0,0-.55.527C7.263,26.144,7.982,29.248,8.384,31.079Z" transform="translate(21.925 -0.001)" fill="#030104"/>
      <path id="Path_6" data-name="Path 6" d="M101.316,50.035c-.392-7.015-.877-18.136-8.358-27.226a17.146,17.146,0,0,0-7.192-3.964S74.78,16.1,69.721,13.141l-2.31,1.3.257,12.3L53.8,57.065a2.258,2.258,0,0,1-3.883,0L36.046,26.738s.257-12.263.252-12.3c.033.1-2.315-1.3-2.315-1.3-5.048,2.963-16.039,5.708-16.039,5.708a17.146,17.146,0,0,0-7.192,3.964C3.276,31.9,2.781,43.02,2.389,50.035c-.271,4.847.968,6.656,2.53,7.171,19.349,6.362,74.509,6.362,93.863,0C100.35,56.693,101.582,54.882,101.316,50.035Z" transform="translate(-2.352 37.023)" fill="#030104"/>
      <path id="Path_7" data-name="Path 7" d="M17.1,15.492l-.512.012a15.192,15.192,0,0,1-4.955-.887l4.5,6.893-4.041,3.9,4.162,25.257a.445.445,0,0,0,.443.375.451.451,0,0,0,.443-.375l4.162-25.257-4.044-3.9,4.438-6.79a19.028,19.028,0,0,1-4.6.771Z" transform="translate(32.799 41.192)" fill="#030104"/>
    </g>
  </g>
</svg>
