<svg xmlns="http://www.w3.org/2000/svg" width="99" height="99" viewBox="0 0 99 99">
  <g id="quality" transform="translate(-14.654)">
    <g id="Group_2" data-name="Group 2" transform="matrix(0.999, -0.052, 0.052, 0.999, 71.92, 59.347)">
      <g id="Group_1" data-name="Group 1" transform="translate(0 0)">
        <path id="Path_1" data-name="Path 1" d="M39.407,24.265,27.858,0A42.79,42.79,0,0,1,0,17.54L9.668,37.853a3.308,3.308,0,0,0,6.056-.259l4.955-13.337L21.7,23.79l13.612,4.855a3.331,3.331,0,0,0,3.537-.853,3.169,3.169,0,0,0,.559-3.527Z" transform="translate(0 0)"/>
      </g>
    </g>
    <g id="Group_4" data-name="Group 4" transform="translate(27.486)">
      <g id="Group_3" data-name="Group 3" transform="translate(0)">
        <path id="Path_2" data-name="Path 2" d="M109.3,0a36.815,36.815,0,1,0,36.817,36.815A36.816,36.816,0,0,0,109.3,0Zm17.914,34.11-6.529,6.364,1.542,8.988a3.351,3.351,0,0,1-4.857,3.527L109.3,48.746l-8.072,4.243a3.35,3.35,0,0,1-4.858-3.527l1.542-8.988L91.381,34.11a3.349,3.349,0,0,1,1.85-5.708l9.023-1.31,4.035-8.175a3.348,3.348,0,0,1,6,0l4.035,8.175,9.023,1.31a3.349,3.349,0,0,1,1.867,5.708Z" transform="translate(-72.48)"/>
      </g>
    </g>
    <g id="Group_6" data-name="Group 6" transform="matrix(0.999, 0.052, -0.052, 0.999, 16.733, 56.977)">
      <g id="Group_5" data-name="Group 5">
        <path id="Path_3" data-name="Path 3" d="M11.853,0,.3,24.265a3.169,3.169,0,0,0,.559,3.526,3.331,3.331,0,0,0,3.536.854L18.011,23.79l1.021.467,4.955,13.337a3.308,3.308,0,0,0,6.056.259L39.711,17.54A42.789,42.789,0,0,1,11.853,0Z"/>
      </g>
    </g>
  </g>
</svg>
