<svg xmlns="http://www.w3.org/2000/svg" width="20.003" height="20" viewBox="0 0 20.003 20">
  <path id="skype" d="M19.407,12.108A9.464,9.464,0,0,0,8.468.835,5.535,5.535,0,0,0,0,5.448,5.372,5.372,0,0,0,.759,8.2,9.467,9.467,0,0,0,11.842,19.33C16.567,21.828,21.789,16.846,19.407,12.108Zm-6.36,3.921a8.636,8.636,0,0,1-6.391-.189c-2.492-1.329-2.935-4.319-.785-4.319,1.62,0,1.107,1.889,2.743,2.659a3.969,3.969,0,0,0,3.3-.25,1.3,1.3,0,0,0,.338-2.062c-1.335-1.232-5.154-.742-6.9-2.9a3.135,3.135,0,0,1,.031-3.783c1.625-2.091,6.394-2.218,8.445-.639,1.893,1.465,1.382,3.409-.146,3.409-1.838,0-.872-2.4-3.838-2.4-2.151,0-3,1.529-1.482,2.273,2.053,1.02,7.285.679,7.285,4.664a3.789,3.789,0,0,1-2.6,3.54Z" transform="translate(0 0.002)"/>
</svg>
