<svg xmlns="http://www.w3.org/2000/svg" width="99" height="99" viewBox="0 0 99 99">
  <g id="support" transform="translate(-0.026 0)">
    <g id="Group_5" data-name="Group 5" transform="translate(40.513 -0.001)">
      <g id="Group_4" data-name="Group 4">
        <path id="Path_8" data-name="Path 8" d="M221.939,0a12.062,12.062,0,0,0-11.91,11.91,12.062,12.062,0,0,0,11.91,11.91,11.91,11.91,0,1,0,0-23.821Z" transform="translate(-210.029 0.001)"/>
      </g>
    </g>
    <g id="Group_7" data-name="Group 7" transform="translate(34.652 23.541)">
      <g id="Group_6" data-name="Group 6">
        <path id="Path_9" data-name="Path 9" d="M210.8,122a17.465,17.465,0,0,1-13,5.857A17.892,17.892,0,0,1,184.6,122a17.437,17.437,0,0,0-4.57,11.714v2.929a2.927,2.927,0,0,0,2.929,2.929H212.44a2.927,2.927,0,0,0,2.929-2.929v-2.929A17.437,17.437,0,0,0,210.8,122Z" transform="translate(-180.03 -122)"/>
      </g>
    </g>
    <g id="Group_9" data-name="Group 9" transform="translate(0.026 55.76)">
      <g id="Group_8" data-name="Group 8">
        <path id="Path_10" data-name="Path 10" d="M28.319,323.7,13.394,293.776a5.857,5.857,0,0,0-7.841-2.634l-3.9,1.932a2.931,2.931,0,0,0-1.318,3.935l17.571,35.143a2.932,2.932,0,0,0,3.921,1.315l3.85-1.908a5.857,5.857,0,0,0,2.642-7.859Z" transform="translate(-0.026 -290.532)"/>
      </g>
    </g>
    <g id="Group_11" data-name="Group 11" transform="translate(16.448 45.188)">
      <g id="Group_10" data-name="Group 10">
        <path id="Path_11" data-name="Path 11" d="M169.2,238.669a5.839,5.839,0,0,0-7.731.761l-16.01,19.68a7.079,7.079,0,0,1-4.334,1.874H127.48a2.929,2.929,0,1,1,0-5.857h11.714a5.857,5.857,0,0,0,0-11.714H123.849c-1.46,0-2.187-.926-3.339-1.933a20.378,20.378,0,0,0-18.18-4.45,21.366,21.366,0,0,0-8.991,4.489l-.087-.07-4.236,3.728,16.647,33.38H139.2a17.643,17.643,0,0,0,14.057-7.029l17.181-24.6a5.9,5.9,0,0,0-1.233-8.259Z" transform="translate(-89.016 -236.46)"/>
      </g>
    </g>
  </g>
</svg>
